<?xml version="1.0" encoding="utf-8"?>
<!-- Generator: Adobe Illustrator 16.0.0, SVG Export Plug-In . SVG Version: 6.00 Build 0)  -->
<!DOCTYPE svg PUBLIC "-//W3C//DTD SVG 1.1//EN" "http://www.w3.org/Graphics/SVG/1.1/DTD/svg11.dtd">
<svg version="1.1" id="Capa_1" xmlns="http://www.w3.org/2000/svg" xmlns:xlink="http://www.w3.org/1999/xlink" x="0px" y="0px"
	 width="364px" height="244px" viewBox="0 0 364 244" enable-background="new 0 0 364 244" xml:space="preserve">
<g>
	<g>
		<path fill="#FFFFFF" d="M53.013,5.401c0,0-20.667,14.667-33.333,37S6.347,81.734,6.347,81.734v114.334h46.667V5.401z"/>
		<path fill="#FFFFFF" d="M263.346,152.4V5.401c0,0-20.666,14.667-33.333,37S216.68,81.734,216.68,81.734v114.334h140.333V152.4
			H263.346z"/>
		<g>
			<g>
				<path fill="#FFFFFF" d="M205.014,60.068V13.401c0,0-81.084-0.249-80.834-0.083c0,0-17.917-0.25-30.667,8.333
					c-11.906,8.016-22.291,19.142-25.75,36.917c-0.744,3.824-0.823,6.412-0.578,8.167h-0.172v71.999h0v2.859h0.172
					c-0.246,1.754-0.166,4.342,0.578,8.166c3.459,17.775,13.844,28.902,25.75,36.918c12.75,8.582,30.666,8.332,30.666,8.332
					c-0.25,0.166,80.834-0.082,80.834-0.082V148.26H125.68v0.131c-1.773-0.033-3.961-0.098-6.667-0.215
					c-5.833-0.248-5.167-6.916-5.167-6.916l-0.166-0.012V67.081l0.166-0.013c0,0-0.667-6.667,5.167-6.916
					c2.706-0.116,4.893-0.181,6.667-0.215v0.131H205.014z"/>
			</g>
		</g>
	</g>
	<g>
		<path fill="#FFFFFF" d="M19.046,225.627c0,0.92-0.114,1.784-0.342,2.594c-0.228,0.81-0.572,1.538-1.032,2.187
			c-0.459,0.648-1.033,1.208-1.721,1.68c-0.688,0.472-1.491,0.837-2.411,1.097c-0.527,0.149-1.097,0.253-1.709,0.312
			c-0.613,0.06-1.277,0.089-1.992,0.089H6.268v-15.772h3.607c0.715,0,1.379,0.029,1.992,0.089c0.613,0.059,1.183,0.163,1.709,0.312
			c0.919,0.259,1.723,0.62,2.411,1.084c0.688,0.464,1.257,1.012,1.709,1.645c0.452,0.633,0.79,1.344,1.014,2.134
			C18.934,223.865,19.046,224.716,19.046,225.627z M17.136,225.627c0-1.517-0.334-2.746-1.003-3.689s-1.629-1.611-2.879-2.004
			c-0.478-0.149-1.011-0.252-1.601-0.307s-1.254-0.082-1.995-0.082H8.189v12.307h1.469c0.741,0,1.406-0.028,1.995-0.083
			s1.123-0.157,1.601-0.307c1.25-0.393,2.21-1.08,2.879-2.062S17.136,227.159,17.136,225.627z"/>
		<path fill="#FFFFFF" d="M31.146,231.852h8.086v1.732H29.224v-15.772h9.572v1.733h-7.65v5.092h6.802v1.733h-6.802V231.852z"/>
		<path fill="#FFFFFF" d="M50.825,221.984c0,0.464,0.094,0.847,0.282,1.149s0.441,0.553,0.758,0.749s0.686,0.357,1.105,0.483
			c0.419,0.125,0.856,0.243,1.311,0.354c0.611,0.149,1.213,0.314,1.804,0.495c0.592,0.181,1.119,0.43,1.581,0.748
			c0.462,0.318,0.837,0.733,1.123,1.244c0.286,0.511,0.429,1.167,0.429,1.968c0,0.818-0.155,1.523-0.464,2.116
			c-0.31,0.594-0.738,1.081-1.285,1.462s-1.193,0.664-1.94,0.849s-1.564,0.277-2.452,0.277c-0.409,0-0.827-0.025-1.255-0.077
			c-0.429-0.051-0.837-0.119-1.226-0.206c-0.389-0.086-0.741-0.185-1.055-0.295c-0.314-0.109-0.562-0.22-0.743-0.33v-1.756
			c0.283,0.142,0.601,0.271,0.955,0.389c0.354,0.118,0.719,0.218,1.096,0.301c0.377,0.082,0.758,0.147,1.144,0.194
			c0.385,0.047,0.746,0.07,1.084,0.07c0.55,0,1.074-0.047,1.574-0.141c0.499-0.095,0.937-0.252,1.314-0.472
			c0.377-0.22,0.676-0.521,0.896-0.902c0.22-0.381,0.33-0.858,0.33-1.432c0-0.472-0.096-0.86-0.289-1.167
			c-0.193-0.307-0.45-0.561-0.772-0.761s-0.693-0.363-1.114-0.489c-0.42-0.125-0.863-0.243-1.326-0.354
			c-0.613-0.142-1.212-0.301-1.798-0.478s-1.108-0.422-1.567-0.736c-0.46-0.314-0.83-0.72-1.108-1.214
			c-0.279-0.495-0.418-1.128-0.418-1.898c0-0.802,0.146-1.491,0.44-2.068c0.293-0.578,0.69-1.056,1.19-1.433
			s1.077-0.656,1.729-0.837c0.652-0.181,1.348-0.271,2.086-0.271c0.841,0,1.625,0.081,2.352,0.242
			c0.727,0.161,1.393,0.371,1.998,0.631v1.779c-0.652-0.274-1.326-0.499-2.021-0.672c-0.696-0.173-1.44-0.263-2.234-0.271
			c-0.598,0-1.116,0.064-1.556,0.194s-0.806,0.314-1.096,0.554c-0.291,0.24-0.507,0.53-0.648,0.872S50.825,221.568,50.825,221.984z"
			/>
		<path fill="#FFFFFF" d="M67.781,233.584l6.424-15.772h1.662l6.425,15.772h-2.087l-1.883-4.751h-6.595l-1.883,4.751H67.781z
			 M75.019,220.264c-0.704,1.963-1.375,3.747-2.016,5.352l-0.589,1.485h5.228l-0.598-1.484c-0.647-1.633-1.307-3.417-1.977-5.353
			H75.019z"/>
		<path fill="#FFFFFF" d="M93.39,227.054v6.53h-1.921v-15.772h4.086c0.69,0,1.277,0.025,1.76,0.077
			c0.483,0.051,0.924,0.131,1.325,0.241c1.099,0.299,1.939,0.808,2.52,1.526c0.581,0.72,0.871,1.617,0.871,2.693
			c0,0.637-0.102,1.207-0.307,1.71c-0.204,0.503-0.491,0.938-0.86,1.309c-0.37,0.369-0.812,0.672-1.326,0.907
			s-1.086,0.409-1.715,0.519v0.047l4.668,6.743h-1.921l-4.857-6.53H93.39z M93.39,219.545v5.775h1.898
			c0.589,0,1.092-0.02,1.509-0.059s0.79-0.11,1.12-0.212c0.667-0.204,1.183-0.531,1.544-0.979c0.361-0.448,0.542-1.033,0.542-1.757
			c-0.008-0.676-0.181-1.22-0.519-1.633c-0.338-0.412-0.806-0.709-1.403-0.89c-0.283-0.086-0.621-0.149-1.014-0.188
			s-0.892-0.059-1.497-0.059H93.39z"/>
		<path fill="#FFFFFF" d="M114.437,227.054v6.53h-1.921v-15.772h4.086c0.69,0,1.277,0.025,1.76,0.077
			c0.483,0.051,0.924,0.131,1.325,0.241c1.099,0.299,1.939,0.808,2.52,1.526c0.581,0.72,0.871,1.617,0.871,2.693
			c0,0.637-0.102,1.207-0.307,1.71c-0.204,0.503-0.491,0.938-0.86,1.309c-0.37,0.369-0.812,0.672-1.326,0.907
			s-1.086,0.409-1.715,0.519v0.047l4.668,6.743h-1.921l-4.857-6.53H114.437z M114.437,219.545v5.775h1.898
			c0.589,0,1.092-0.02,1.509-0.059s0.79-0.11,1.12-0.212c0.667-0.204,1.183-0.531,1.544-0.979c0.361-0.448,0.542-1.033,0.542-1.757
			c-0.008-0.676-0.181-1.22-0.519-1.633c-0.338-0.412-0.806-0.709-1.403-0.89c-0.283-0.086-0.621-0.149-1.014-0.188
			s-0.892-0.059-1.497-0.059H114.437z"/>
		<path fill="#FFFFFF" d="M147.66,225.71c0,1.194-0.172,2.291-0.515,3.288c-0.343,0.998-0.834,1.859-1.474,2.582
			s-1.409,1.287-2.31,1.691s-1.908,0.607-3.023,0.607c-1.154,0-2.187-0.203-3.099-0.607s-1.684-0.969-2.315-1.691
			c-0.632-0.723-1.115-1.584-1.45-2.582c-0.335-0.997-0.503-2.094-0.503-3.288c0-1.203,0.173-2.305,0.521-3.307
			c0.347-1.002,0.838-1.864,1.473-2.588c0.636-0.723,1.405-1.286,2.31-1.691c0.904-0.404,1.918-0.607,3.041-0.607
			c1.146,0,2.173,0.203,3.082,0.607c0.908,0.405,1.678,0.969,2.31,1.691c0.631,0.724,1.115,1.586,1.45,2.588
			C147.492,223.405,147.66,224.507,147.66,225.71z M145.75,225.71c0-1.062-0.139-1.996-0.417-2.806
			c-0.278-0.81-0.661-1.485-1.15-2.027c-0.488-0.543-1.064-0.953-1.728-1.232c-0.663-0.278-1.376-0.418-2.139-0.418
			s-1.476,0.14-2.139,0.418c-0.663,0.279-1.239,0.689-1.728,1.232c-0.488,0.542-0.872,1.218-1.15,2.027s-0.417,1.744-0.417,2.806
			c0,1.061,0.141,1.994,0.423,2.799c0.282,0.806,0.667,1.479,1.156,2.022c0.488,0.542,1.064,0.95,1.728,1.226
			c0.663,0.275,1.38,0.412,2.151,0.412c0.763,0,1.472-0.137,2.127-0.412c0.655-0.275,1.228-0.684,1.716-1.226
			c0.489-0.543,0.872-1.217,1.15-2.022C145.611,227.704,145.75,226.771,145.75,225.71z"/>
		<path fill="#FFFFFF" d="M159.878,217.812v14.04h7.698v1.732h-9.619v-15.772H159.878z"/>
		<path fill="#FFFFFF" d="M179.203,217.812v14.04h7.697v1.732h-9.619v-15.772H179.203z"/>
		<path fill="#FFFFFF" d="M209.764,225.71c0,1.194-0.172,2.291-0.516,3.288c-0.342,0.998-0.834,1.859-1.473,2.582
			c-0.641,0.723-1.41,1.287-2.311,1.691s-1.908,0.607-3.021,0.607c-1.154,0-2.188-0.203-3.1-0.607s-1.684-0.969-2.316-1.691
			c-0.631-0.723-1.113-1.584-1.449-2.582c-0.336-0.997-0.502-2.094-0.502-3.288c0-1.203,0.172-2.305,0.52-3.307
			s0.838-1.864,1.473-2.588c0.637-0.723,1.406-1.286,2.311-1.691c0.904-0.404,1.918-0.607,3.041-0.607
			c1.145,0,2.172,0.203,3.08,0.607c0.908,0.405,1.678,0.969,2.311,1.691c0.631,0.724,1.115,1.586,1.449,2.588
			C209.596,223.405,209.764,224.507,209.764,225.71z M207.854,225.71c0-1.062-0.139-1.996-0.418-2.806
			c-0.277-0.81-0.66-1.485-1.148-2.027c-0.49-0.543-1.064-0.953-1.729-1.232c-0.664-0.278-1.377-0.418-2.139-0.418
			c-0.764,0-1.477,0.14-2.141,0.418c-0.662,0.279-1.238,0.689-1.727,1.232c-0.49,0.542-0.873,1.218-1.15,2.027
			c-0.279,0.81-0.418,1.744-0.418,2.806c0,1.061,0.141,1.994,0.424,2.799c0.281,0.806,0.668,1.479,1.156,2.022
			c0.488,0.542,1.064,0.95,1.727,1.226c0.664,0.275,1.381,0.412,2.152,0.412c0.762,0,1.471-0.137,2.127-0.412
			c0.654-0.275,1.227-0.684,1.717-1.226c0.488-0.543,0.871-1.217,1.148-2.022C207.715,227.704,207.854,226.771,207.854,225.71z"/>
		<path fill="#FFFFFF" d="M237.039,232.169c0.574,0,1.082-0.066,1.527-0.2c0.443-0.133,0.83-0.322,1.16-0.565
			s0.605-0.536,0.826-0.878c0.219-0.342,0.389-0.722,0.506-1.138c0.078-0.26,0.135-0.549,0.166-0.866
			c0.031-0.318,0.047-0.627,0.047-0.926v-9.784h1.922v9.737c0,0.369-0.02,0.754-0.061,1.155c-0.039,0.4-0.102,0.773-0.188,1.119
			c-0.15,0.582-0.373,1.12-0.672,1.615s-0.688,0.924-1.168,1.285c-0.479,0.361-1.055,0.645-1.727,0.849s-1.459,0.307-2.363,0.307
			c-0.865,0-1.623-0.095-2.275-0.283s-1.213-0.45-1.68-0.784s-0.85-0.73-1.148-1.19s-0.531-0.961-0.695-1.503
			c-0.119-0.393-0.203-0.813-0.254-1.261c-0.051-0.448-0.076-0.885-0.076-1.309v-9.737h1.92v9.784c0,0.354,0.025,0.717,0.078,1.091
			c0.051,0.373,0.131,0.713,0.24,1.02c0.275,0.762,0.732,1.363,1.373,1.804C235.139,231.949,235.986,232.169,237.039,232.169z"/>
		<path fill="#FFFFFF" d="M255.822,227.054v6.53H253.9v-15.772h4.086c0.691,0,1.277,0.025,1.76,0.077
			c0.484,0.051,0.926,0.131,1.326,0.241c1.098,0.299,1.938,0.808,2.52,1.526c0.58,0.72,0.871,1.617,0.871,2.693
			c0,0.637-0.102,1.207-0.307,1.71s-0.49,0.938-0.859,1.309c-0.371,0.369-0.812,0.672-1.326,0.907
			c-0.516,0.235-1.088,0.409-1.717,0.519v0.047l4.668,6.743h-1.92l-4.857-6.53H255.822z M255.822,219.545v5.775h1.898
			c0.59,0,1.092-0.02,1.508-0.059c0.418-0.039,0.791-0.11,1.121-0.212c0.668-0.204,1.182-0.531,1.543-0.979
			c0.361-0.448,0.543-1.033,0.543-1.757c-0.008-0.676-0.182-1.22-0.52-1.633c-0.338-0.412-0.805-0.709-1.402-0.89
			c-0.283-0.086-0.621-0.149-1.014-0.188s-0.893-0.059-1.496-0.059H255.822z"/>
		<path fill="#FFFFFF" d="M282.609,225.427c0.488,0.07,0.926,0.2,1.314,0.389s0.723,0.431,1.002,0.726
			c0.279,0.294,0.494,0.645,0.643,1.049c0.15,0.405,0.225,0.866,0.225,1.385c0,0.37-0.055,0.757-0.164,1.161
			c-0.107,0.405-0.289,0.798-0.541,1.179c-0.254,0.382-0.584,0.733-0.992,1.056s-0.916,0.585-1.521,0.789
			c-0.467,0.158-0.984,0.268-1.551,0.33c-0.568,0.063-1.248,0.095-2.041,0.095h-4.035v-15.772h3.893
			c0.357,0,0.682,0.006,0.973,0.018s0.561,0.029,0.805,0.054c0.244,0.023,0.471,0.053,0.682,0.088
			c0.209,0.035,0.408,0.077,0.594,0.124c0.49,0.134,0.936,0.316,1.334,0.548c0.4,0.232,0.74,0.509,1.02,0.831
			c0.281,0.322,0.496,0.688,0.646,1.097c0.152,0.408,0.229,0.853,0.229,1.332c0,0.385-0.045,0.754-0.137,1.107
			c-0.09,0.354-0.234,0.681-0.436,0.979c-0.199,0.299-0.459,0.566-0.777,0.802c-0.318,0.236-0.705,0.433-1.162,0.59V225.427z
			 M279.793,224.637c0.377,0,0.703-0.018,0.979-0.053s0.521-0.089,0.742-0.159c0.59-0.196,1.02-0.503,1.291-0.92
			c0.271-0.416,0.406-0.907,0.406-1.473c0-0.582-0.141-1.058-0.424-1.427s-0.727-0.645-1.332-0.825
			c-0.299-0.086-0.645-0.147-1.037-0.183c-0.395-0.035-0.857-0.053-1.391-0.053h-2.158v5.092H279.793z M276.869,226.37v5.481h2.322
			c0.551,0,1.061-0.025,1.533-0.077c0.471-0.051,0.871-0.132,1.201-0.241c0.361-0.118,0.668-0.27,0.92-0.454
			s0.453-0.389,0.607-0.613c0.152-0.224,0.264-0.461,0.33-0.713c0.066-0.251,0.1-0.507,0.1-0.767c0-0.298-0.035-0.579-0.105-0.843
			c-0.07-0.263-0.188-0.499-0.348-0.707c-0.162-0.208-0.373-0.391-0.637-0.548s-0.592-0.279-0.984-0.365
			c-0.236-0.056-0.506-0.095-0.809-0.118c-0.301-0.023-0.678-0.035-1.125-0.035H276.869z"/>
		<path fill="#FFFFFF" d="M294.438,233.584l6.426-15.772h1.662l6.424,15.772h-2.086l-1.883-4.751h-6.596l-1.883,4.751H294.438z
			 M301.676,220.264c-0.703,1.963-1.375,3.747-2.016,5.352l-0.59,1.485h5.229l-0.598-1.484c-0.648-1.633-1.307-3.417-1.979-5.353
			H301.676z"/>
		<path fill="#FFFFFF" d="M326.225,226.605c0.967,1.391,1.92,2.821,2.863,4.291h0.07c-0.102-1.532-0.152-3.097-0.152-4.691v-8.394
			h1.934v15.772h-1.922l-6.189-8.794c-1.068-1.532-2.023-2.963-2.863-4.291h-0.07c0.102,1.438,0.152,3.116,0.152,5.034v8.051h-1.922
			v-15.772h1.91L326.225,226.605z"/>
		<path fill="#FFFFFF" d="M355.793,225.71c0,1.194-0.172,2.291-0.514,3.288c-0.344,0.998-0.834,1.859-1.475,2.582
			c-0.639,0.723-1.408,1.287-2.309,1.691s-1.908,0.607-3.023,0.607c-1.154,0-2.188-0.203-3.1-0.607s-1.684-0.969-2.314-1.691
			s-1.115-1.584-1.451-2.582c-0.334-0.997-0.502-2.094-0.502-3.288c0-1.203,0.174-2.305,0.52-3.307
			c0.348-1.002,0.838-1.864,1.475-2.588c0.635-0.723,1.404-1.286,2.309-1.691c0.904-0.404,1.918-0.607,3.041-0.607
			c1.146,0,2.174,0.203,3.082,0.607c0.908,0.405,1.678,0.969,2.309,1.691c0.633,0.724,1.115,1.586,1.451,2.588
			C355.625,223.405,355.793,224.507,355.793,225.71z M353.883,225.71c0-1.062-0.139-1.996-0.416-2.806
			c-0.279-0.81-0.662-1.485-1.15-2.027c-0.488-0.543-1.064-0.953-1.729-1.232c-0.662-0.278-1.375-0.418-2.139-0.418
			c-0.762,0-1.475,0.14-2.139,0.418c-0.664,0.279-1.24,0.689-1.729,1.232c-0.488,0.542-0.871,1.218-1.15,2.027
			c-0.277,0.81-0.416,1.744-0.416,2.806c0,1.061,0.141,1.994,0.422,2.799c0.283,0.806,0.668,1.479,1.156,2.022
			c0.488,0.542,1.064,0.95,1.729,1.226s1.381,0.412,2.15,0.412c0.764,0,1.473-0.137,2.127-0.412
			c0.656-0.275,1.229-0.684,1.717-1.226c0.488-0.543,0.871-1.217,1.15-2.022C353.744,227.704,353.883,226.771,353.883,225.71z"/>
	</g>
</g>
</svg>
